<svg width="35" height="41" viewBox="0 0 35 41" fill="none" xmlns="http://www.w3.org/2000/svg">
<path d="M17.7931 1.46377C17.7943 0.793605 18.5054 0.395568 19.0617 0.76926C19.2844 0.918859 19.5061 1.06922 19.7284 1.21566L22.5253 3.03109L31.7037 8.96006C32.2287 9.29921 32.2379 10.053 31.7077 10.3839C31.4773 10.5277 31.2464 10.6703 31.0182 10.815C30.1911 11.3645 29.3192 11.8437 28.4946 12.3981C28.2862 12.5382 28.0161 12.5541 27.7992 12.4274C26.4373 11.6313 25.1228 10.7057 23.799 9.85298C21.8923 8.62494 19.9607 7.4362 18.0885 6.15494C17.9136 6.03524 17.8095 5.83683 17.8087 5.6249C17.8037 4.23832 17.7905 2.85072 17.7931 1.46377Z" fill="#4EC1F3"/>
<path d="M16.1687 1.46377C16.1675 0.793605 15.4564 0.395568 14.9001 0.76926C14.6774 0.918859 14.4557 1.06922 14.2334 1.21566L11.4365 3.03109L2.25816 8.96006C1.73314 9.29921 1.72391 10.053 2.25416 10.3839C2.48453 10.5277 2.71538 10.6703 2.9436 10.815C3.77072 11.3645 4.64258 11.8437 5.46721 12.3981C5.67564 12.5382 5.94575 12.5541 6.16258 12.4274C7.52454 11.6313 8.83898 10.7057 10.1629 9.85298C12.0695 8.62494 14.0011 7.4362 15.8733 6.15494C16.0482 6.03524 16.1523 5.83683 16.1531 5.6249C16.1581 4.23832 16.1713 2.85072 16.1687 1.46377Z" fill="#4EC1F3"/>
<path d="M16.169 9.32402C16.169 8.58288 15.3221 8.20146 14.7094 8.61845C14.6605 8.65176 14.6098 8.68569 14.5571 8.72042L11.7602 10.5358L8.09394 12.8773C7.56552 13.2148 7.5544 13.9714 8.08632 14.3033C8.31464 14.4458 8.54339 14.5871 8.76956 14.7305C9.59668 15.28 10.4685 15.7592 11.2932 16.3136C11.5016 16.4537 11.7722 16.4701 11.9871 16.3401C13.3031 15.5447 14.3428 14.6202 15.6652 13.7685C15.6652 13.7685 15.6652 13.7685 15.8456 13.6571C16.0361 13.5395 16.1523 13.3318 16.1532 13.1079C16.1578 11.847 16.1691 10.5853 16.169 9.32402Z" fill="#4EC1F3"/>
<path d="M17.7927 9.32402C17.7928 8.58288 18.6397 8.20146 19.2524 8.61845C19.3013 8.65176 19.352 8.68569 19.4047 8.72042L22.2016 10.5358L25.8678 12.8773C26.3963 13.2148 26.4074 13.9714 25.8755 14.3033C25.6471 14.4458 25.4184 14.5871 25.1922 14.7305C24.3651 15.28 23.4933 15.7592 22.6686 16.3136C22.4602 16.4537 22.1896 16.4701 21.9747 16.3401C20.6587 15.5447 19.619 14.6202 18.2966 13.7685C18.2966 13.7685 18.2966 13.7685 18.1162 13.6571C17.9256 13.5395 17.8095 13.3318 17.8086 13.1079C17.804 11.847 17.7927 10.5853 17.7927 9.32402Z" fill="#4EC1F3"/>
<path fill-rule="evenodd" clip-rule="evenodd" d="M14.9122 39.8939C15.4836 40.247 16.1804 39.8465 16.1744 39.1748C16.1619 37.7697 16.1551 36.3645 16.1519 34.9591C16.1513 34.7268 16.0266 34.5126 15.8246 34.398C15.5437 34.2386 15.1699 34.0267 14.7456 33.7863C12.9433 32.7648 10.2295 31.2268 9.85652 30.9994C8.52746 30.2029 7.17904 29.3816 5.85791 28.5462C5.11619 28.0772 4.67261 27.2579 4.67261 26.3803V21.5201C4.67261 20.5024 5.79278 19.8826 6.65501 20.4232L9.39035 22.1383C9.91147 22.4627 13.3763 24.4527 15.2311 25.4795C15.6546 25.714 16.1623 25.4078 16.1632 24.9237C16.1654 23.701 16.1666 22.4783 16.1655 21.2557C16.1652 20.9411 15.9967 20.6512 15.7266 20.4896C15.0492 20.0844 14.3839 19.6566 13.7189 19.2289C13.2552 18.9307 12.7917 18.6326 12.3242 18.3423L4.58035 13.5243C3.58223 12.8836 2.5807 12.2485 1.57577 11.6189C1.45697 11.5445 1.33634 11.466 1.21419 11.3865C1.19394 11.3734 1.17365 11.3602 1.15332 11.3469C0.62483 11.0034 0.00118293 11.3892 0.00114713 12.0195L0.000119871 30.1816C0.000103821 30.4791 0.149794 30.757 0.400342 30.9175C1.00862 31.3069 1.62552 31.6841 2.24226 32.0612C2.65838 32.3156 3.07443 32.57 3.4877 32.828C6.09362 34.4775 8.71832 36.0961 11.3618 37.6838C12.0043 38.0726 12.6404 38.4731 13.2766 38.8737C13.8002 39.2034 14.3239 39.5331 14.8512 39.8563C14.8716 39.8688 14.8919 39.8813 14.9122 39.8939Z" fill="white"/>
<path fill-rule="evenodd" clip-rule="evenodd" d="M32.8418 11.2625C33.4131 10.9072 34.1117 11.3071 34.1057 11.9799C34.0711 15.8868 34.0801 19.7951 34.0891 23.7031C34.0939 25.7891 34.0987 27.875 34.0968 29.9605C34.0965 30.2742 33.929 30.5634 33.6603 30.7252C32.9851 31.1319 32.322 31.5613 31.6593 31.9905C31.1973 32.2896 30.7355 32.5887 30.2698 32.8799L22.5547 37.7136C21.5603 38.3563 20.5625 38.9935 19.5613 39.6251C19.3948 39.7301 19.2012 39.8343 18.997 39.9351C18.431 40.2146 17.7815 39.7763 17.7815 39.145V20.9755C17.7815 20.679 17.9297 20.4012 18.1819 20.2454C18.6915 19.9305 19.2363 19.627 19.779 19.3249C20.3592 19.0017 20.9369 18.68 21.4661 18.3472C24.0623 16.6924 26.6773 15.0686 29.311 13.4757C29.9511 13.0857 30.5848 12.6839 31.2186 12.282C31.7403 11.9512 32.2621 11.6204 32.7874 11.2962L32.8418 11.2625ZM28.4564 19.7671C28.8726 19.4929 29.4046 19.7907 29.405 20.2891L29.4098 26.9842C29.4102 27.4877 29.1159 27.9423 28.686 28.2045C28.4343 28.358 28.1855 28.5228 27.9393 28.686C27.7403 28.818 27.5429 28.9488 27.3469 29.0716L24.1744 31.0888C23.5272 31.5004 22.6807 31.0343 22.6824 30.2673L22.6964 24.0914C22.6973 23.6552 22.9178 23.2484 23.2841 23.0114C24.7787 22.0445 26.2878 21.1013 27.8114 20.1818C28.0283 20.0486 28.2424 19.908 28.4564 19.7671Z" fill="white"/>
</svg>
